<?xml version="1.0" encoding="UTF-8" standalone="no"?>
<!-- Created with Inkscape (http://www.inkscape.org/) -->

<svg
   width="161.02409mm"
   height="57.968674mm"
   viewBox="0 0 161.02409 57.968674"
   version="1.1"
   id="svg5"
   xml:space="preserve"
   inkscape:version="1.2.2 (732a01da63, 2022-12-09)"
   sodipodi:docname="resistor_color_code.svg"
   xmlns:inkscape="http://www.inkscape.org/namespaces/inkscape"
   xmlns:sodipodi="http://sodipodi.sourceforge.net/DTD/sodipodi-0.dtd"
   xmlns="http://www.w3.org/2000/svg"
   xmlns:svg="http://www.w3.org/2000/svg"><sodipodi:namedview
     id="namedview7"
     pagecolor="#ffffff"
     bordercolor="#000000"
     borderopacity="0.25"
     inkscape:showpageshadow="2"
     inkscape:pageopacity="0.0"
     inkscape:pagecheckerboard="0"
     inkscape:deskcolor="#d1d1d1"
     inkscape:document-units="mm"
     showgrid="false"
     inkscape:zoom="2.0913616"
     inkscape:cx="274.46235"
     inkscape:cy="92.523456"
     inkscape:window-width="1920"
     inkscape:window-height="991"
     inkscape:window-x="-9"
     inkscape:window-y="-9"
     inkscape:window-maximized="1"
     inkscape:current-layer="g2261" /><defs
     id="defs2"><clipPath
       clipPathUnits="userSpaceOnUse"
       id="clipPath365"><rect
         style="fill:#363636;stroke:#363636;stroke-width:0.2;stroke-linejoin:bevel;stroke-miterlimit:8.3;paint-order:markers fill stroke;stop-color:#000000"
         id="rect367"
         width="158.34036"
         height="38.109035"
         x="-28.268673"
         y="54.211445"
         ry="3.5068328" /></clipPath></defs><g
     inkscape:label="Layer 1"
     inkscape:groupmode="layer"
     id="layer1"
     transform="translate(-1.4313256,-2.8626497)"><g
       id="g2261"
       transform="translate(5.7253012,-53.316867)"><path
         style="fill:#000000;stroke-width:0.264583"
         d="m 144.46961,128.08188 c 0.003,-0.58208 0.0571,-0.78905 0.1204,-0.45994 0.0633,0.32912 0.0609,0.80537 -0.005,1.05834 -0.0662,0.25296 -0.118,-0.0163 -0.11507,-0.5984 z m 6.56875,-0.022 c 0.0127,-0.30823 0.0754,-0.37092 0.15985,-0.15985 0.0764,0.19099 0.067,0.4192 -0.0209,0.50712 -0.0879,0.0879 -0.15045,-0.0684 -0.13896,-0.34727 z m -12.98547,-0.47628 c 0,-0.0558 0.29405,-0.15766 0.65345,-0.22637 0.35939,-0.0687 0.59049,-0.023 0.51355,0.10145 -0.13549,0.21923 -1.167,0.32964 -1.167,0.12492 z m 14.55208,-0.42772 c -0.23847,-0.15411 -0.2711,-0.2581 -0.0818,-0.26053 0.17331,-0.002 0.3887,0.11501 0.47863,0.26053 0.20302,0.32849 0.11142,0.32849 -0.39687,0 z m 1.32292,0 c -0.23847,-0.15411 -0.2711,-0.2581 -0.0818,-0.26053 0.17332,-0.002 0.3887,0.11501 0.47864,0.26053 0.20302,0.32849 0.11142,0.32849 -0.39687,0 z m -15.66003,-0.97449 c 0.19099,-0.0764 0.4192,-0.067 0.50712,0.0209 0.0879,0.0879 -0.0683,0.15046 -0.34727,0.13897 -0.30822,-0.0127 -0.37092,-0.0754 -0.15985,-0.15985 z m -27.02609,-3.17065 c -0.097,-0.097 -0.17639,-0.29942 -0.17639,-0.44979 0,-0.16365 0.12746,-0.14595 0.3175,0.0441 0.42942,0.42941 0.91711,0.40009 1.09593,-0.0659 0.0988,-0.25737 0.02,-0.33461 -0.23964,-0.23499 -0.91116,0.34965 -1.61428,-1.33249 -0.82929,-1.98398 0.18948,-0.15725 0.60619,-0.21747 0.92604,-0.13383 0.4821,0.12607 0.58155,0.34136 0.58155,1.25893 0,0.60877 -0.14288,1.24972 -0.3175,1.42435 -0.34593,0.34592 -1.07739,0.42192 -1.3582,0.14111 z m 1.2178,-1.47726 c 0.16939,-0.4856 -0.0761,-0.99218 -0.48084,-0.99218 -0.46482,0 -0.73253,0.45839 -0.54822,0.93871 0.18067,0.47083 0.87097,0.5067 1.02906,0.0535 z m 4.42635,0.72669 c -0.29035,-0.87975 -0.16478,-2.37937 0.21909,-2.61662 0.0979,-0.0605 0.17808,0.71201 0.17808,1.71676 0,1.00475 -0.0205,1.82682 -0.0456,1.82682 -0.0251,0 -0.1833,-0.41713 -0.35155,-0.92696 z m 8.33467,-0.88122 c 0,-1.90881 0.25488,-2.26052 0.53933,-0.74424 0.0935,0.49834 0.0133,1.23543 -0.18819,1.72914 -0.34048,0.83444 -0.35114,0.80456 -0.35114,-0.9849 z m -26.921351,0.86342 c -0.109141,-0.11097 -0.198438,-0.77724 -0.198438,-1.48059 v -1.27882 l 1.124479,0.0423 c 0.97475,0.0367 1.00998,0.0565 0.26458,0.14905 -0.93096,0.11553 -1.231153,0.86694 -0.34634,0.86694 0.28245,0 0.58714,0.11906 0.67707,0.26458 0.0923,0.14936 -0.12368,0.26458 -0.49597,0.26458 -0.51208,0 -0.67822,0.15354 -0.74322,0.68684 -0.046,0.37777 -0.173021,0.59605 -0.282161,0.48507 z m 2.182811,-0.89171 c 0,-0.59067 0.11906,-1.07395 0.26458,-1.07395 0.14553,0 0.26459,0.40969 0.26459,0.91043 0,0.50073 -0.11906,0.98401 -0.26459,1.07395 -0.15979,0.0987 -0.26458,-0.26184 -0.26458,-0.91043 z m 1.09798,0.0867 c -0.0356,-0.97615 0.0217,-1.08368 0.55567,-1.043 0.32742,0.0249 0.73653,-0.0591 0.90913,-0.18678 0.18532,-0.13709 0.5374,-0.11247 0.85989,0.0601 0.74343,0.39787 0.68733,0.58375 -0.11538,0.38228 -0.38761,-0.0973 -0.66146,-0.0522 -0.66146,0.10885 0,0.15118 0.2679,0.31292 0.59532,0.35942 0.83696,0.11886 0.81234,1.11217 -0.0305,1.23142 -0.66715,0.0944 -1.32092,-0.34665 -0.99579,-0.67178 0.10735,-0.10735 0.29576,-0.0325 0.41868,0.16643 0.1421,0.22993 0.40183,0.28922 0.71322,0.1628 0.4448,-0.18059 0.42904,-0.22614 -0.17174,-0.49652 -0.3638,-0.16374 -0.80227,-0.47856 -0.97437,-0.69963 -0.404,-0.51891 -0.7996,-0.13539 -0.95,0.92099 -0.093,0.65292 -0.12004,0.60065 -0.15265,-0.2946 z m 3.57404,0.75762 c -0.13395,-0.2184 -0.2461,-1.49419 -0.20214,-2.29953 0.0277,-0.5084 0.0319,-0.5084 0.40642,0 0.20811,0.28248 0.26765,0.55328 0.13229,0.60179 -0.35258,0.12635 -0.30386,1.20341 0.0714,1.57868 0.2287,0.2287 0.23306,0.3175 0.0156,0.3175 -0.16604,0 -0.35665,-0.0893 -0.42359,-0.19844 z m 2.20715,-1.25677 V 119.483 h 0.87312 c 1.0622,0 1.50813,0.40122 1.50813,1.35694 0,0.93856 -0.63587,1.55348 -1.6064,1.55348 -0.76283,0 -0.77485,-0.0226 -0.77485,-1.45521 z m 1.9812,0.40687 c 0.24441,-0.77008 -0.30692,-1.59749 -1.06447,-1.59749 -0.58445,0 -0.65215,0.10986 -0.65215,1.05833 0,0.99413 0.0471,1.05833 0.77592,1.05833 0.53857,0 0.82633,-0.15881 0.9407,-0.51917 z m 0.84102,0.87195 c -0.28,-0.28 -0.20453,-1.94028 0.0882,-1.94028 0.14553,0 0.26459,0.47625 0.26459,1.05834 0,1.08142 -0.0438,1.19092 -0.35278,0.88194 z m 3.33526,-0.88194 c 0,-0.65485 0.0516,-0.92274 0.11466,-0.59532 0.0631,0.32742 0.0631,0.86321 0,1.19063 -0.0631,0.32742 -0.11466,0.0595 -0.11466,-0.59531 z m 0.98627,0.15433 c 0,-0.49719 -0.11074,-0.94367 -0.24609,-0.99218 -0.13536,-0.0485 -0.0758,-0.31931 0.13229,-0.60179 0.32927,-0.44693 0.37838,-0.45551 0.37838,-0.0661 0,0.24609 0.14883,0.44926 0.33073,0.45149 0.23649,0.003 0.22553,0.0707 -0.0384,0.23781 -0.25192,0.15951 -0.31704,0.49433 -0.20505,1.05428 0.0938,0.46881 0.0535,0.82053 -0.0939,0.82053 -0.14189,0 -0.25797,-0.4068 -0.25797,-0.904 z m 3.47922,-0.50104 -0.0396,-1.53732 0.99219,0.0821 0.99219,0.0821 0.0397,1.45521 c 0.0255,0.93542 -0.0255,1.21894 -0.14275,0.79375 -0.12629,-0.45791 -0.39723,-0.68665 -0.88047,-0.74333 -0.58766,-0.0689 -0.71572,0.0357 -0.80979,0.66145 -0.0615,0.40884 -0.12958,0.0515 -0.15139,-0.79399 z m 1.68015,-0.71163 c 0,-0.23627 -0.29444,-0.43075 -0.7276,-0.48059 -0.59249,-0.0682 -0.72761,0.0211 -0.72761,0.48059 0,0.45953 0.13512,0.54877 0.72761,0.4806 0.43316,-0.0498 0.7276,-0.24433 0.7276,-0.4806 z m 1.10243,1.94028 c -0.097,-0.097 -0.17639,-0.50954 -0.17639,-0.91673 0,-0.96424 0.83673,-1.47194 1.43684,-0.87183 0.62301,0.62301 0.50462,0.90662 -0.3785,0.90662 -0.79348,0 -1.04851,0.34048 -0.50612,0.6757 0.15821,0.0978 0.42014,0.0453 0.58209,-0.11667 0.44238,-0.44239 0.83222,-0.35427 0.45319,0.10242 -0.34067,0.41049 -1.10213,0.52947 -1.41111,0.22049 z m 1.14653,-1.41111 c 0,-0.14552 -0.17156,-0.26458 -0.38126,-0.26458 -0.20969,0 -0.45484,0.11906 -0.54478,0.26458 -0.0899,0.14552 0.0816,0.26458 0.38126,0.26458 0.29963,0 0.54478,-0.11906 0.54478,-0.26458 z m 1.10447,1.26322 c -0.73794,-0.73794 -0.0117,-2.21142 0.92383,-1.87428 0.16968,0.0611 0.36423,-0.10377 0.43233,-0.36649 0.0681,-0.26271 0.13763,0.18098 0.15451,0.98599 0.0283,1.35081 -0.0167,1.46757 -0.58463,1.51457 -0.33843,0.028 -0.75515,-0.0889 -0.92604,-0.25979 z m 1.14449,-0.75248 c 0,-0.39557 -0.17524,-0.66953 -0.46382,-0.72511 -0.59499,-0.11458 -0.88666,0.62899 -0.45211,1.15259 0.45865,0.55264 0.91593,0.33922 0.91593,-0.42748 z m -96.771356,0.10778 c 0.181901,-0.0734 0.479557,-0.0734 0.661458,0 0.181902,0.0734 0.03307,0.13345 -0.330729,0.13345 -0.363802,0 -0.51263,-0.06 -0.330729,-0.13345 z m -1.389062,-0.39682 c -1.290646,-0.71068 -3.346969,-3.18063 -2.96554,-3.56207 0.0639,-0.0639 0.259246,0.22919 0.434096,0.65132 0.372123,0.89838 1.668645,2.18743 2.796027,2.77989 0.436562,0.22943 0.674687,0.41829 0.529167,0.41969 -0.145521,10e-4 -0.502709,-0.12858 -0.79375,-0.28883 z m -3.265517,-4.45503 c 0,-0.36381 0.06006,-0.51263 0.133453,-0.33073 0.0734,0.1819 0.0734,0.47955 0,0.66145 -0.0734,0.18191 -0.133453,0.0331 -0.133453,-0.33072 z m 94.517175,-2.25986 c -0.43182,-0.33475 -0.43677,-0.36541 -0.0365,-0.22603 0.25466,0.0887 0.67138,0.0703 0.92604,-0.0409 0.37602,-0.16418 0.31388,-0.23213 -0.33073,-0.36164 -0.69987,-0.14061 -0.79375,-0.26869 -0.79375,-1.08291 0,-0.86002 0.0591,-0.92526 0.8599,-0.9499 0.85473,-0.0263 0.85989,-0.0188 0.85989,1.24746 0,1.4989 -0.61712,2.08656 -1.4848,1.41393 z m 1.06934,-1.35899 c 0.19975,-0.52055 -0.45953,-1.2882 -0.88207,-1.02706 -0.3195,0.19747 -0.39138,1.01671 -0.11358,1.29452 0.31933,0.31932 0.82233,0.1842 0.99565,-0.26746 z m 4.37766,0.8235 c -0.34002,-0.89433 -0.31251,-1.70317 0.0821,-2.41278 0.27675,-0.4977 0.32136,-0.32326 0.32136,1.25677 0,1.00908 -0.0327,1.83469 -0.0727,1.83469 -0.04,0 -0.18881,-0.30541 -0.33073,-0.67868 z m 12.08942,-0.6021 c 0.09,-0.76006 0.0274,-1.51304 -0.15407,-1.85208 -0.1854,-0.34643 -0.20284,-0.57131 -0.0443,-0.57131 0.46229,0 0.79328,1.77806 0.51714,2.77813 -0.35983,1.3032 -0.49705,1.15051 -0.31878,-0.35474 z m -36.490681,0.46584 c -0.254662,-0.14833 -0.463021,-0.40665 -0.463021,-0.57404 0,-0.22211 0.08579,-0.21856 0.3175,0.0131 0.174625,0.17462 0.591342,0.3175 0.926042,0.3175 0.82182,0 0.78902,-0.73837 -0.0421,-0.94696 -0.953666,-0.23936 -1.350676,-0.80343 -0.925797,-1.31538 0.477297,-0.5751 1.680167,-0.38897 1.796347,0.27796 0.0902,0.51771 0.0839,0.51821 -0.29021,0.0232 -0.24536,-0.32468 -0.5462,-0.44314 -0.83952,-0.33059 -0.603532,0.2316 -0.391157,0.81428 0.33577,0.92123 0.82767,0.12177 1.21421,0.95717 0.68688,1.4845 -0.47782,0.47782 -0.84893,0.50981 -1.501931,0.12947 z m 2.645831,0 c -0.57717,-0.33617 -0.60213,-1.38607 -0.044,-1.8493 0.49133,-0.40777 1.24871,-0.057 1.38629,0.64208 0.0647,0.32885 -0.11619,0.43466 -0.74322,0.43466 -0.52655,0 -0.7643,0.1043 -0.65199,0.28602 0.10066,0.16288 0.46902,0.21267 0.85557,0.11566 0.59323,-0.1489 0.63553,-0.11825 0.33561,0.24314 -0.3981,0.47968 -0.51208,0.49247 -1.13829,0.12774 z m 0.8599,-1.4184 c 0,-0.27927 -0.50777,-0.39659 -0.65879,-0.15223 -0.0914,0.1479 0.0194,0.2689 0.2463,0.2689 0.22687,0 0.41249,-0.0525 0.41249,-0.11667 z m 1.20952,1.2884 c -0.52038,-0.52038 -0.53445,-1.27302 -0.0316,-1.69035 0.48509,-0.40259 1.25116,-0.26582 1.42288,0.25404 0.1111,0.33633 0.0658,0.34295 -0.29722,0.0434 -0.55446,-0.45763 -0.98066,-0.18222 -0.98066,0.6337 0,0.69024 0.48511,0.84866 1.00542,0.32835 0.17639,-0.17639 0.3175,-0.19991 0.3175,-0.0529 0,0.30693 -0.54534,0.89958 -0.82777,0.89958 -0.10602,0 -0.37986,-0.1871 -0.60854,-0.41577 z m 2.08506,-0.22794 c -0.74339,-1.13457 0.47637,-2.35867 1.415,-1.42004 0.48607,0.48607 0.37779,1.4837 -0.19427,1.78986 -0.69986,0.37455 -0.7412,0.36202 -1.22073,-0.36982 z m 1.31704,-0.3293 c 0.19975,-0.52055 -0.45953,-1.2882 -0.88207,-1.02706 -0.3195,0.19747 -0.39138,1.01671 -0.11358,1.29452 0.31933,0.31932 0.82233,0.1842 0.99565,-0.26746 z m 3.49575,0.66068 c -0.90382,-0.5058 -0.21922,-2.34753 0.73632,-1.98086 0.24879,0.0955 0.42341,-0.057 0.4965,-0.43342 0.062,-0.31937 0.12896,0.09 0.14878,0.90982 0.0302,1.2476 -0.0441,1.51144 -0.45556,1.61904 -0.27037,0.0707 -0.68709,0.0192 -0.92604,-0.11458 z m 1.10867,-0.84329 c 0.0517,-0.26845 -0.0371,-0.61916 -0.19729,-0.77937 -0.40368,-0.40369 -1.21095,0.42163 -0.98594,1.00799 0.21737,0.56646 1.06153,0.40335 1.18323,-0.22862 z m 13.02942,0.64691 c -0.65532,-0.65531 -0.69673,-1.28019 -0.13775,-2.07825 0.44809,-0.63974 1.41129,-0.77571 1.91645,-0.27054 0.54932,0.54932 0.34431,0.84711 -0.22715,0.32995 -0.7582,-0.68617 -1.43972,-0.22753 -1.43972,0.96889 0,0.81481 0.0709,0.8972 0.7717,0.8972 0.42444,0 0.82131,-0.14882 0.88195,-0.33073 0.0606,-0.1819 -0.0783,-0.33072 -0.30869,-0.33072 -0.2304,0 -0.41892,-0.11907 -0.41892,-0.26459 0,-0.14552 0.23813,-0.26458 0.52917,-0.26458 0.40465,0 0.52916,0.17639 0.52916,0.74965 0,0.41662 -0.14692,0.75524 -0.33072,0.76224 -0.18191,0.007 -0.52989,0.0955 -0.7733,0.19684 -0.28248,0.11762 -0.64137,-0.0146 -0.99218,-0.36536 z m 4.26579,0.19121 c -0.47121,-0.47121 -0.39469,-1.78615 0.11534,-1.98187 0.53263,-0.20439 1.25737,0.22141 1.37249,0.80638 0.0647,0.32885 -0.11618,0.43466 -0.74321,0.43466 -0.52941,0 -0.76456,0.10389 -0.651,0.28763 0.0978,0.1582 0.40245,0.22888 0.67707,0.15706 0.60324,-0.15775 0.67173,0.22628 0.0808,0.45304 -0.53285,0.20448 -0.48045,0.21414 -0.85148,-0.1569 z m 0.79375,-1.5875 c -0.24695,-0.24694 -0.38806,-0.24694 -0.635,0 -0.24695,0.24695 -0.17639,0.3175 0.3175,0.3175 0.49389,0 0.56444,-0.0705 0.3175,-0.3175 z m 1.46844,1.61923 c -0.57717,-0.33617 -0.60213,-1.38607 -0.044,-1.8493 0.49133,-0.40777 1.2487,-0.057 1.38628,0.64208 0.0647,0.32885 -0.11619,0.43466 -0.74322,0.43466 -0.52655,0 -0.7643,0.1043 -0.65199,0.28602 0.10066,0.16288 0.46902,0.21267 0.85557,0.11566 0.59323,-0.1489 0.63554,-0.11825 0.33561,0.24314 -0.39809,0.47968 -0.51208,0.49247 -1.13828,0.12774 z m 0.85989,-1.4184 c 0,-0.27927 -0.50776,-0.39659 -0.65879,-0.15223 -0.0914,0.1479 0.0194,0.2689 0.2463,0.2689 0.22687,0 0.41249,-0.0525 0.41249,-0.11667 z m -24.29149,0.4474 c 0.0751,-0.90779 0.14963,-0.99219 0.87587,-0.99219 0.74277,0 0.7964,0.068 0.83503,1.05834 l 0.0413,1.05833 -0.17357,-0.92604 c -0.22686,-1.21032 -0.93561,-1.25495 -1.05024,-0.0661 -0.0456,0.47295 -0.20161,0.8599 -0.3467,0.8599 -0.14508,0 -0.22684,-0.44649 -0.18167,-0.99219 z m 6.03524,-0.46302 c 0,-1.43262 0.012,-1.45521 0.77485,-1.45521 0.97054,0 1.6064,0.61492 1.6064,1.55348 0,0.95572 -0.44592,1.35694 -1.50812,1.35694 h -0.87313 z m 1.85743,0.65147 c 0.45742,-0.8547 0.0831,-1.57751 -0.81693,-1.57751 -0.72885,0 -0.77592,0.0642 -0.77592,1.05833 0,0.94847 0.0677,1.05834 0.65215,1.05834 0.38539,0 0.77018,-0.22055 0.9407,-0.53916 z m 0.7884,-0.10669 c 0,-0.50073 0.11907,-0.98401 0.26459,-1.07395 0.15979,-0.0987 0.26458,0.26184 0.26458,0.91043 0,0.59067 -0.11906,1.07395 -0.26458,1.07395 -0.14552,0 -0.26459,-0.40969 -0.26459,-0.91043 z m 3.51165,-0.1479 c 0,-0.65485 0.0516,-0.92274 0.11466,-0.59532 0.0631,0.32742 0.0631,0.86321 0,1.19063 -0.0631,0.32742 -0.11466,0.0595 -0.11466,-0.59531 z m 0.92283,0.0661 c -0.0667,-0.5457 -0.0632,-1.151 0.008,-1.3451 0.2359,-0.64436 0.5636,0.26012 0.39666,1.09484 -0.10132,0.50658 -0.0281,0.84618 0.21579,1.00059 0.30076,0.19045 0.28873,0.23451 -0.0649,0.23781 -0.30467,0.003 -0.47024,-0.29173 -0.5554,-0.98814 z m 6.45308,0.0563 c -0.0332,-0.89319 0.047,-1.0747 0.48953,-1.10803 0.60852,-0.0458 0.71278,0.32935 0.15137,0.54478 -0.20778,0.0797 -0.42807,0.47942 -0.48952,0.8882 -0.0859,0.57136 -0.1209,0.49621 -0.15138,-0.32495 z m 5.56678,-0.0563 c 0.0751,-0.90779 0.14964,-0.99219 0.87587,-0.99219 0.74278,0 0.7964,0.068 0.83504,1.05834 l 0.0413,1.05833 -0.17358,-0.92604 c -0.22685,-1.21032 -0.93561,-1.25495 -1.05023,-0.0661 -0.0456,0.47295 -0.20162,0.8599 -0.3467,0.8599 -0.14509,0 -0.22684,-0.44649 -0.18168,-0.99219 z m -76.428398,-0.26458 c 7.541816,-0.039 19.805253,-0.039 27.252084,2e-5 7.446827,0.0391 1.276249,0.071 -13.712397,0.071 -14.988646,-1e-5 -21.081506,-0.032 -13.539687,-0.071 z M 39.01309,110.42094 c -0.807353,-1.08183 -1.240261,-1.91589 -1.226934,-2.36385 0.0057,-0.19147 0.188841,0.0633 0.40699,0.5662 0.218149,0.50288 0.695799,1.30655 1.061442,1.78594 0.365644,0.47938 0.605277,0.87161 0.532516,0.87161 -0.07276,0 -0.421065,-0.38695 -0.774014,-0.8599 z M 37.574,97.985527 37.51122,88.262087 h -8.204886 c -7.306426,0 -8.471839,0.0595 -10.642761,0.54303 -2.127372,0.47386 -3.166039,0.53284 -8.154887,0.46302 l -5.7170083,-0.08 -1.2941723,-0.80075 C 2.69754,87.892427 1.8975458,87.092557 1.4025871,86.292817 0.61560246,85.021227 0.60038626,84.929327 0.51710596,80.944437 l -0.084735,-4.05456 -13.25994096,-0.0686 -13.259941,-0.0686 -0.207801,-0.80207 c -0.114292,-0.44114 -0.113295,-1.15552 0.0021,-1.5875 l 0.210119,-0.78543 13.276313,-0.0686 13.27631316,-0.0686 v -3.71022 c 0,-5.00508 0.64695394,-6.50601 3.47391314,-8.05944 1.3999634,-0.76929 1.49098,-0.78222 6.1833777,-0.87889 4.339069,-0.0894 5.051044,-0.037 8.007858,0.58913 l 3.245359,0.68723 h 27.399274 27.399276 l 2.957452,-0.68319 c 2.732074,-0.63112 3.330459,-0.67572 7.852241,-0.58515 5.355183,0.10726 6.010294,0.25704 7.730628,1.76751 1.689825,1.48369 2.114838,2.81753 2.264751,7.1076 l 0.131749,3.77031 h 11.728168 c 11.3245,0 11.73759,0.0176 12.00206,0.51177 0.30332,0.56677 0.36179,1.86173 0.11329,2.5093 -0.14313,0.373 -1.44827,0.41851 -12.00206,0.41851 H 97.115429 l -0.128728,3.77032 c -0.110288,3.23016 -0.214555,3.94088 -0.727799,4.96093 -0.807646,1.60517 -1.495968,2.31452 -2.977952,3.0689 -1.199068,0.61038 -1.46399,0.63527 -6.760276,0.63527 -4.517898,0 -5.939457,-0.0944 -7.880152,-0.52344 -1.302316,-0.28789 -3.106772,-0.52602 -4.009901,-0.52917 l -1.642054,-0.006 -0.09131,1.91823 -0.09131,1.91823 -0.05257,-1.91823 -0.05257,-1.91823 H 62.519404 52.338007 l -0.07653,5.88698 -0.07653,5.886983 -0.06082,-5.886983 -0.06082,-5.88698 h -7.14049 -7.140491 l -0.07276,9.72344 -0.07277,9.723433 z m -20.154697,-9.61293 1.840672,-0.41865 -0.06865,-12.86586 -0.06865,-12.86587 -1.5875,-0.32998 c -0.945497,-0.19653 -3.674015,-0.3323 -6.746875,-0.33571 -5.7735656,-0.006 -6.5014106,0.16106 -8.1246849,1.86955 -1.5784804,1.66133 -1.66616074,2.28218 -1.653286,11.70625 0.00876,6.40553 0.098893,8.74412 0.3658817,9.49227 0.5649357,1.58306 1.6994452,2.84942 3.1634166,3.53108 1.2703122,0.59149 1.6527886,0.63057 6.1964406,0.63299 3.472633,0.002 5.363277,-0.11585 6.683235,-0.41607 z m 74.697676,0.0952 c 1.431967,-0.42525 3.383084,-2.37637 3.808333,-3.80833 0.226301,-0.76205 0.323406,-3.71219 0.323406,-9.82552 v -8.73649 l -0.739304,-1.41519 c -0.5378,-1.02946 -1.090735,-1.63265 -2.028667,-2.21302 l -1.289359,-0.79784 -5.295451,-0.082 c -5.044784,-0.0781 -6.891313,0.0943 -9.763365,0.91191 -0.432599,0.12314 -0.463021,0.95512 -0.463021,12.66292 v 12.53112 l 1.521354,0.30451 c 0.836745,0.16748 1.878542,0.40331 2.315104,0.52406 1.288463,0.3564 10.369664,0.3125 11.61097,-0.0561 z M 69.790384,75.297497 V 62.862087 H 62.911217 56.03205 v 12.43541 12.43542 h 6.879167 6.879167 z m -35.454167,-0.26458 v -12.43542 h -3.531161 -3.531161 l -0.156205,4.95724 c -0.08591,2.72647 -0.08545,8.32241 0.0011,12.43541 l 0.157213,7.47819 h 3.530127 3.530129 z m 14.2875,0 v -12.43542 h -3.571875 -3.571875 v 12.43542 12.43542 h 3.571875 3.571875 z m 72.098963,0.79375 c 0.10809,-0.17489 -3.87781,-0.26458 -11.75835,-0.26458 -7.77152,0 -11.921862,0.0921 -11.921862,0.26458 0,0.17242 4.095842,0.26458 11.758342,0.26458 7.55349,0 11.81682,-0.0946 11.92187,-0.26458 z M 0.20496646,74.768337 c 0,-0.17268 -4.36562506,-0.26459 -12.56770846,-0.26459 -8.202084,0 -12.567709,0.0919 -12.567709,0.26459 0,0.17267 4.365625,0.26458 12.567709,0.26458 8.2020834,0 12.56770846,-0.0919 12.56770846,-0.26458 z M 107.09663,105.5923 v -1.45521 h 0.90822 c 0.67584,0 0.95118,0.13539 1.07616,0.52916 0.27457,0.86511 -0.0947,1.5875 -0.81158,1.5875 -0.39572,0 -0.64363,0.15287 -0.64363,0.39688 0,0.21828 -0.11906,0.39687 -0.26458,0.39687 -0.14552,0 -0.26459,-0.65484 -0.26459,-1.4552 z m 1.68319,0 c 0.21035,-0.54819 -0.0752,-1.19063 -0.52917,-1.19063 -0.20728,0 -0.44541,0.1786 -0.52917,0.39688 -0.21036,0.54818 0.0752,1.19062 0.52917,1.19062 0.20728,0 0.4454,-0.17859 0.52917,-0.39687 z m 7.58463,0.81322 c -0.38342,-1.0085 -0.33775,-2.07985 0.1143,-2.68088 0.34882,-0.46378 0.35987,-0.41527 0.11391,0.50012 -0.18979,0.70637 -0.18622,1.26084 0.0118,1.82884 0.35301,1.01264 0.13356,1.33443 -0.24,0.35192 z m 8.21724,0.0707 c 0.17912,-0.33469 0.2478,-1.12917 0.16582,-1.91823 l -0.13993,-1.34692 0.3791,0.87383 c 0.29537,0.68083 0.31698,1.10451 0.0979,1.91823 -0.15468,0.57442 -0.39989,1.04439 -0.54492,1.04439 -0.16222,0 -0.14603,-0.21985 0.0421,-0.5713 z m -26.176568,-1.63356 c -0.04768,-1.85202 0.391138,-1.92646 0.977988,-0.1659 0.41594,1.24781 0.42126,1.24485 1.08821,-0.6058 0.43974,-1.22019 0.80738,-0.83861 0.76474,0.79375 l -0.0397,1.52136 -0.15869,-1.19063 -0.1587,-1.19062 -0.45083,1.14762 c -0.51076,1.30019 -0.81392,1.26341 -1.31162,-0.15912 l -0.34585,-0.9885 -0.16288,1.19062 -0.162887,1.19063 z m 3.576238,1.23473 c -0.28,-0.28 -0.20453,-1.94028 0.0882,-1.94028 0.14552,0 0.26458,0.41672 0.26458,0.92604 0,0.64676 0.1197,0.92604 0.39688,0.92604 0.27718,0 0.39687,-0.27928 0.39687,-0.92604 0,-0.50932 0.11907,-0.92604 0.26459,-0.92604 0.14552,0 0.26458,0.47625 0.26458,1.05833 0,0.9857 -0.0514,1.05833 -0.74965,1.05833 -0.41231,0 -0.82903,-0.0794 -0.92604,-0.17638 z m 2.28684,-1.27882 c 0.002,-0.87313 0.0509,-1.19842 0.10977,-0.72287 0.0589,0.47555 0.0577,1.18992 -0.003,1.5875 -0.0604,0.39758 -0.10855,0.008 -0.10707,-0.86463 z m 0.97635,0.71437 c 0,-0.40746 -0.14287,-0.88371 -0.3175,-1.05833 -0.24694,-0.24695 -0.24694,-0.3175 0,-0.3175 0.17463,0 0.3269,-0.20836 0.33839,-0.46302 0.0166,-0.36881 0.0516,-0.38227 0.17196,-0.0661 0.0831,0.21828 0.28205,0.48435 0.44214,0.59126 0.20135,0.13448 0.18912,0.19564 -0.0397,0.19844 -0.18806,0.002 -0.33073,0.33694 -0.33073,0.77575 0,0.42444 0.14883,0.83176 0.33073,0.90516 0.19758,0.0797 0.14432,0.14186 -0.13229,0.15434 -0.3357,0.0151 -0.46302,-0.18282 -0.46302,-0.71995 z m 1.05833,-0.3175 c 0,-0.58208 0.11907,-1.05833 0.26459,-1.05833 0.14552,0 0.26458,0.47625 0.26458,1.05833 0,0.58208 -0.11906,1.05833 -0.26458,1.05833 -0.14552,0 -0.26459,-0.47625 -0.26459,-1.05833 z m 3.52157,-0.39687 c 0.002,-0.87313 0.0509,-1.19842 0.10977,-0.72287 0.0589,0.47555 0.0577,1.18992 -0.003,1.5875 -0.0604,0.39758 -0.10855,0.008 -0.10707,-0.86463 z m 0.71177,0.39687 c 0,-0.58208 0.11906,-1.05833 0.26458,-1.05833 0.14552,0 0.26458,0.47625 0.26458,1.05833 0,0.58208 -0.11906,1.05833 -0.26458,1.05833 -0.14552,0 -0.26458,-0.47625 -0.26458,-1.05833 z m 1.12139,0.75097 c -0.71955,-0.71954 -0.0779,-1.95286 0.91642,-1.76138 0.72265,0.13917 0.67297,1.90819 -0.0565,2.01274 -0.29274,0.042 -0.67969,-0.0711 -0.85989,-0.25136 z m 1.12757,-0.2218 c 0.0899,-0.14552 -0.0816,-0.26459 -0.38126,-0.26459 -0.29963,0 -0.54479,0.11907 -0.54479,0.26459 0,0.14552 0.17157,0.26458 0.38126,0.26458 0.2097,0 0.45485,-0.11906 0.54479,-0.26458 z m 0,-1.05834 c -0.0899,-0.14552 -0.33509,-0.26458 -0.54479,-0.26458 -0.20969,0 -0.38126,0.11906 -0.38126,0.26458 0,0.14553 0.24516,0.26459 0.54479,0.26459 0.29963,0 0.47119,-0.11906 0.38126,-0.26459 z m 0.96207,0.65162 c -0.0307,-0.90913 0.0469,-1.07442 0.52117,-1.11015 0.50559,-0.0381 0.52008,-5.3e-4 0.15642,0.40672 -0.22044,0.24678 -0.45497,0.74635 -0.52117,1.11015 -0.0821,0.45089 -0.13186,0.32142 -0.15642,-0.40672 z m 3.40355,-0.53454 v -1.47042 l 1.12448,0.0814 1.12448,0.0814 0.029,1.45521 c 0.0257,1.28752 -0.003,1.37136 -0.24952,0.7276 -0.379,-0.98996 -1.49932,-1.03939 -1.49932,-0.0661 0,0.3638 -0.11906,0.66145 -0.26459,0.66145 -0.14552,0 -0.26458,-0.66168 -0.26458,-1.47042 z m 1.98438,-0.64624 c 0,-0.23627 -0.29445,-0.43076 -0.72761,-0.4806 -0.59249,-0.0682 -0.7276,0.0211 -0.7276,0.4806 0,0.45952 0.13511,0.54877 0.7276,0.48059 0.43316,-0.0498 0.72761,-0.24432 0.72761,-0.48059 z m 1.0291,1.73903 c -0.0797,-0.20769 -0.10573,-0.65418 -0.0578,-0.99218 0.10389,-0.73325 1.03428,-0.96207 1.52206,-0.37433 0.43984,0.52997 0.14237,0.95039 -0.67247,0.95039 -0.40894,0 -0.59359,0.10981 -0.48369,0.28764 0.0978,0.1582 0.40245,0.22887 0.67707,0.15706 0.27462,-0.0718 0.49931,-0.0226 0.49931,0.10924 0,0.39423 -1.32757,0.27098 -1.48444,-0.13782 z m 1.21985,-1.20987 c 0,-0.14552 -0.17156,-0.26458 -0.38125,-0.26458 -0.2097,0 -0.45485,0.11906 -0.54479,0.26458 -0.0899,0.14553 0.0816,0.26459 0.38126,0.26459 0.29963,0 0.54478,-0.11906 0.54478,-0.26459 z m 0.90255,0.92664 c -0.23716,-0.94493 0.0399,-1.4558 0.78954,-1.4558 0.39691,0 0.69752,-0.18045 0.77136,-0.46302 0.0666,-0.25466 0.13482,0.22159 0.1517,1.05833 0.0306,1.51871 0.0293,1.52135 -0.75802,1.52135 -0.62044,0 -0.8241,-0.14099 -0.95458,-0.66086 z m 1.34641,-0.39747 c 0,-0.39339 -0.17132,-0.6872 -0.42973,-0.73697 -0.49277,-0.0949 -0.81896,0.54237 -0.58701,1.14683 0.24746,0.64486 1.01674,0.33475 1.01674,-0.40986 z m -67.799477,-0.92362 c -0.472943,-0.20556 -0.859896,-0.44322 -0.859896,-0.52812 0,-0.0849 0.243665,-0.024 0.54148,0.13542 0.297813,0.15938 1.041953,0.38865 1.653646,0.50948 0.923097,0.18235 0.977228,0.22286 0.318416,0.23833 -0.436563,0.0102 -1.180703,-0.14955 -1.653646,-0.35511 z m -2.294488,-1.76984 c -0.52066,-0.60827 -0.946658,-1.23008 -0.946658,-1.38178 0,-0.15171 0.196853,0.0185 0.437452,0.37835 0.240598,0.3598 0.739124,0.98161 1.107834,1.38179 0.36871,0.40018 0.597855,0.7276 0.509206,0.7276 -0.08865,0 -0.587171,-0.49768 -1.107834,-1.10596 z m 63.188265,-5.134443 c -0.31577,-0.75575 -0.33576,-1.13248 -0.0983,-1.85208 0.16398,-0.49684 0.33096,-0.90335 0.37107,-0.90335 0.0401,0 0.0174,0.57795 -0.0505,1.28434 -0.0684,0.71213 0.0119,1.53728 0.18043,1.85208 0.16712,0.31226 0.23406,0.56774 0.14875,0.56774 -0.0853,0 -0.33348,-0.42692 -0.55151,-0.94873 z m 9.71626,0.21276 c 0.28341,-0.84926 0.23483,-1.7745 -0.1489,-2.8359 -0.18859,-0.52163 -0.18536,-0.52185 0.22716,-0.0156 0.52835,0.64843 0.54315,2.52972 0.0252,3.20615 -0.35934,0.46931 -0.36826,0.43873 -0.10349,-0.35468 z m -27.76474,-1.29614 c -0.0426,-1.1922 -0.12645,-1.3856 -0.644255,-1.48533 -0.327422,-0.0631 0,-0.11466 0.727605,-0.11466 0.7276,0 1.06099,0.0508 0.74085,0.11293 -0.4941,0.0959 -0.59666,0.32031 -0.67866,1.48532 l -0.0966,1.3724 z m 1.32689,0.92086 c -0.48607,-0.48607 -0.37779,-1.4837 0.19427,-1.78985 0.69986,-0.37455 0.7412,-0.36203 1.22073,0.36982 0.7434,1.13457 -0.47636,2.35867 -1.415,1.42003 z m 1.13771,-0.75925 c 0,-0.74848 -0.77619,-1.0183 -1.02961,-0.35791 -0.19388,0.50527 0.30127,1.23647 0.73859,1.0907 0.16006,-0.0533 0.29102,-0.38311 0.29102,-0.73279 z m 0.92604,-0.36284 c 0,-0.80895 0.11906,-1.47082 0.26458,-1.47082 0.14553,0 0.26459,0.58828 0.26459,1.3073 0,0.71901 -0.11906,1.38089 -0.26459,1.47082 -0.16426,0.10153 -0.26458,-0.39413 -0.26458,-1.3073 z m 1.07178,1.05892 c -0.72751,-0.8766 0.36145,-2.41299 1.21072,-1.70816 0.58581,0.48618 0.42834,1.0305 -0.29812,1.0305 -0.6749,0 -0.88295,0.36105 -0.38529,0.66862 0.1519,0.0939 0.46892,0.0116 0.70449,-0.18282 0.36295,-0.29957 0.40849,-0.29295 0.29841,0.0434 -0.17965,0.54888 -1.12202,0.64033 -1.53021,0.14849 z m 1.17718,-1.20683 c -0.0899,-0.14552 -0.33509,-0.26458 -0.54478,-0.26458 -0.2097,0 -0.38126,0.11906 -0.38126,0.26458 0,0.14553 0.24515,0.26459 0.54478,0.26459 0.29963,0 0.4712,-0.11906 0.38126,-0.26459 z m 0.95312,0.62618 c -0.0219,-0.88386 0.0744,-1.12017 0.50209,-1.23201 0.53986,-0.14117 0.76318,0.21915 0.24324,0.39246 -0.15726,0.0524 -0.3832,0.50883 -0.50209,1.01424 l -0.21615,0.91893 z m 1.34455,0.35861 c 0.0533,-0.37523 0.29894,-0.6185 0.67889,-0.67246 0.32742,-0.0465 0.59531,-0.20824 0.59531,-0.35941 0,-0.16671 -0.2863,-0.20467 -0.7276,-0.0965 -0.66493,0.16302 -0.69176,0.14186 -0.31156,-0.24562 0.54785,-0.55833 1.30375,-0.25212 1.30375,0.52814 0,0.33633 0.0648,0.78036 0.14398,0.98672 0.10659,0.27776 -0.10408,0.38453 -0.81118,0.41111 -0.84414,0.0317 -0.94545,-0.0324 -0.87159,-0.552 z m 1.15279,0.0559 c 0.24351,-0.39401 -0.0388,-0.60823 -0.5454,-0.41383 -0.23378,0.0897 -0.35095,0.28301 -0.26038,0.42956 0.21446,0.34701 0.58608,0.33975 0.80578,-0.0157 z m 0.91516,-0.46509 c 0,-0.85189 0.1066,-1.07097 0.58155,-1.19517 0.31985,-0.0837 0.73657,-0.0234 0.92604,0.13383 0.40339,0.33478 0.47969,2.18798 0.0799,1.9409 -0.14552,-0.0899 -0.26458,-0.51368 -0.26458,-0.94165 0,-0.51529 -0.13406,-0.77814 -0.39687,-0.77814 -0.26282,0 -0.39688,0.26285 -0.39688,0.77814 0,0.42797 -0.11906,0.85172 -0.26458,0.94165 -0.1593,0.0985 -0.26459,-0.25155 -0.26459,-0.87956 z m 2.55764,0.83546 c -0.31959,-0.31959 -0.18376,-1.60477 0.20358,-1.92624 0.28203,-0.23406 0.5207,-0.24002 0.92604,-0.0231 0.73364,0.39263 0.68754,0.51537 -0.17116,0.45573 -0.51021,-0.0354 -0.74648,0.0919 -0.81856,0.44132 -0.1402,0.67953 0.37768,1.16969 0.79496,0.75241 0.45902,-0.45902 0.86669,-0.39107 0.47625,0.0794 -0.34067,0.41048 -1.10213,0.52946 -1.41111,0.22048 z m 2.25778,-0.14111 c -0.83875,-0.83875 0.0484,-2.31136 1.06473,-1.76742 0.70531,0.37747 0.58415,1.02659 -0.1916,1.02659 -0.6749,0 -0.88295,0.36105 -0.38529,0.66862 0.1519,0.0939 0.45228,0.0245 0.66752,-0.1541 0.32262,-0.26776 0.36208,-0.24853 0.22468,0.10952 -0.19521,0.50871 -0.92625,0.57058 -1.38004,0.11679 z m 1.13771,-1.27 c -0.0899,-0.14552 -0.32806,-0.26458 -0.52917,-0.26458 -0.2011,0 -0.43923,0.11906 -0.52916,0.26458 -0.0931,0.15066 0.13475,0.26459 0.52916,0.26459 0.39442,0 0.62228,-0.11393 0.52917,-0.26459 z m 3.16903,0.95406 c -0.85159,-1.29968 0.28923,-2.91936 1.62694,-2.30987 0.34539,0.15738 0.62799,0.43156 0.62799,0.60931 0,0.25136 -0.0706,0.25261 -0.3175,0.006 -0.57114,-0.57113 -1.50864,-0.3807 -1.69037,0.34337 -0.30736,1.2246 0.53386,2.13015 1.34978,1.453 0.52049,-0.43197 0.49715,-0.72507 -0.0695,-0.87315 -0.28486,-0.0744 -0.18306,-0.13281 0.26459,-0.15169 0.59881,-0.0253 0.7276,0.0809 0.7276,0.5999 0,0.4303 -0.18909,0.68128 -0.59531,0.79014 -1.06257,0.28476 -1.50161,0.17827 -1.9242,-0.46668 z m 3.05153,0.24001 c -0.68645,-0.82713 0.20869,-2.19462 1.19006,-1.81803 0.98973,0.37979 0.65912,2.21146 -0.39916,2.21146 -0.25541,0 -0.61131,-0.17704 -0.7909,-0.39343 z m 1.27149,-0.75145 c 0.0669,-0.5654 -0.0259,-0.7072 -0.46302,-0.7072 -0.39638,0 -0.54674,0.16978 -0.54674,0.61736 0,1.20131 0.86903,1.27863 1.00976,0.0898 z m 0.84232,-0.29471 c 0,-0.80895 0.11907,-1.47082 0.26459,-1.47082 0.14552,0 0.26458,0.58828 0.26458,1.3073 0,0.71901 -0.11906,1.38089 -0.26458,1.47082 -0.16427,0.10153 -0.26459,-0.39413 -0.26459,-1.3073 z m 1.04884,0.89269 c -0.36056,-0.67373 0.35088,-1.96302 0.95524,-1.73111 0.221,0.0848 0.37717,-0.0162 0.37717,-0.24383 0,-0.21371 0.11907,-0.38857 0.26459,-0.38857 0.14552,0 0.26458,0.65484 0.26458,1.45521 0,1.43667 -0.01,1.4552 -0.78444,1.4552 -0.52213,0 -0.88231,-0.18288 -1.07714,-0.5469 z m 1.28384,-0.59798 c 0.0599,-0.5064 -0.0363,-0.7072 -0.33903,-0.7072 -0.50104,0 -0.79254,0.62386 -0.5666,1.21263 0.23906,0.623 0.80975,0.30451 0.90563,-0.50543 z m -47.907155,0.17591 c 0.181901,-0.0734 0.479557,-0.0734 0.661458,0 0.181901,0.0734 0.03307,0.13345 -0.330729,0.13345 -0.363802,0 -0.51263,-0.0601 -0.330729,-0.13345 z m -1.389063,-0.39683 c -1.366676,-0.75254 -3.052111,-2.81392 -3.036898,-3.71429 0.0032,-0.18912 0.226309,0.13239 0.495803,0.71447 0.536853,1.15955 1.574673,2.22056 2.805679,2.86839 0.436562,0.22974 0.674687,0.41886 0.529166,0.42026 -0.14552,10e-4 -0.502708,-0.12857 -0.79375,-0.28883 z"
         id="path255"
         clip-path="url(#clipPath365)"
         transform="translate(28.984337,3.5783133)" /><path
         style="fill:#363636;stroke:#000000;stroke-width:0.2;stroke-linejoin:bevel;stroke-miterlimit:8.3;stroke-opacity:1;paint-order:markers fill stroke;stop-color:#000000"
         d="m 52.249654,88.72185 v 14.54894"
         id="path423" /><path
         style="fill:#363636;stroke:#000000;stroke-width:0.2;stroke-linejoin:bevel;stroke-miterlimit:8.3;stroke-opacity:1;paint-order:markers fill stroke;stop-color:#000000"
         d="M 66.627347,88.721852 V 103.27079"
         id="path423-3" /><path
         style="fill:#363636;stroke:#000000;stroke-width:0.2;stroke-linejoin:bevel;stroke-miterlimit:8.3;stroke-opacity:1;paint-order:markers fill stroke;stop-color:#000000"
         d="M 81.194754,88.721854 V 103.27078"
         id="path423-3-5" /><path
         style="fill:#363636;stroke:#000000;stroke-width:0.2;stroke-linejoin:bevel;stroke-miterlimit:8.3;stroke-opacity:1;paint-order:markers fill stroke;stop-color:#000000"
         d="M 101.84774,88.721854 V 103.27079"
         id="path423-3-8" /><text
         xml:space="preserve"
         style="font-size:6.35px;line-height:normal;font-family:'CMU Serif';-inkscape-font-specification:'CMU Serif';text-decoration-color:#000000;fill:#000000;fill-opacity:1;stroke:#000000;stroke-width:0.2;stroke-linejoin:bevel;stroke-miterlimit:8.3;stroke-opacity:1;paint-order:markers fill stroke;stop-color:#000000"
         x="50.622597"
         y="109.1194"
         id="text2023"><tspan
           sodipodi:role="line"
           id="tspan2021"
           style="font-size:6.35px;fill:#000000;fill-opacity:1;stroke:none;stroke-width:0.2"
           x="50.622597"
           y="109.1194">G</tspan></text><text
         xml:space="preserve"
         style="font-size:6.35px;line-height:normal;font-family:'CMU Serif';-inkscape-font-specification:'CMU Serif';text-decoration-color:#000000;fill:#000000;fill-opacity:1;stroke:none;stroke-width:0.2;stroke-linejoin:bevel;stroke-miterlimit:8.3;stroke-opacity:1;paint-order:markers fill stroke;stop-color:#000000"
         x="65.186279"
         y="109.1194"
         id="text2023-6"><tspan
           sodipodi:role="line"
           id="tspan2021-1"
           style="font-size:6.35px;fill:#000000;fill-opacity:1;stroke:none;stroke-width:0.2;stroke-opacity:1"
           x="65.186279"
           y="109.1194">B</tspan></text><text
         xml:space="preserve"
         style="font-size:6.35px;line-height:normal;font-family:'CMU Serif';-inkscape-font-specification:'CMU Serif';text-decoration-color:#000000;fill:#000000;fill-opacity:1;stroke:none;stroke-width:0.2;stroke-linejoin:bevel;stroke-miterlimit:8.3;stroke-opacity:1;paint-order:markers fill stroke;stop-color:#000000"
         x="79.576218"
         y="109.04964"
         id="text2023-6-7"><tspan
           sodipodi:role="line"
           id="tspan2021-1-4"
           style="font-size:6.35px;fill:#000000;fill-opacity:1;stroke:none;stroke-width:0.2;stroke-opacity:1"
           x="79.576218"
           y="109.04964">B</tspan></text><text
         xml:space="preserve"
         style="font-size:6.35px;line-height:normal;font-family:'CMU Serif';-inkscape-font-specification:'CMU Serif';text-decoration-color:#000000;fill:#000000;fill-opacity:1;stroke:none;stroke-width:0.2;stroke-linejoin:bevel;stroke-miterlimit:8.3;stroke-opacity:1;paint-order:markers fill stroke;stop-color:#000000"
         x="99.950241"
         y="109.15356"
         id="text2023-6-5"><tspan
           sodipodi:role="line"
           id="tspan2021-1-0"
           style="font-size:6.35px;fill:#000000;fill-opacity:1;stroke:none;stroke-width:0.2;stroke-opacity:1"
           x="99.950241"
           y="109.15356">S</tspan></text></g></g></svg>
